<?xml version="1.0" encoding="utf-8"?>
<!-- Generator: Adobe Illustrator 21.0.2, SVG Export Plug-In . SVG Version: 6.00 Build 0)  -->
<svg version="1.1" id="Layer_1" xmlns="http://www.w3.org/2000/svg" xmlns:xlink="http://www.w3.org/1999/xlink" x="0px" y="0px"
	 viewBox="0 0 1000 1000" style="enable-background:new 0 0 1000 1000;" xml:space="preserve">
<style type="text/css">
	.st0{fill:#2C3E50;}
	.st1{fill:none;stroke:#2C3E50;stroke-width:40.6918;stroke-miterlimit:10;}
</style>
<g>
	<polygon class="st0" points="115.9,473.7 118.9,499 143.9,494.1 120.8,504.8 133.2,527.1 115.9,508.3 98.5,527.1 111,504.8 
		87.8,494.1 112.9,499 	"/>
	<g>
		<path class="st1" d="M884.1,554.3v278.2c0,43.2-35,78.2-78.2,78.2H194.1c-43.2,0-78.2-35-78.2-78.2V554.3"/>
		<path class="st1" d="M115.9,442.4V168.3c0-43.2,35-78.2,78.2-78.2h611.8c43.2,0,78.2,35,78.2,78.2v273.9"/>
		<g>
			<g>
				<g>
					<path class="st0" d="M454.4,767.6c-5.8,1.1-12.5,1.1-18.3,0c-160-29.7-234.3-216.8-141.9-350.8l151.1-219.1l144.2,209.1
						c-0.4,0.4-0.7,0.8-1.1,1.2c-9.4,10.2-18.7,20.5-28,30.8c-3.9,4.4-7.8,8.7-11.5,13.2c-6.2,7.4-12.3,14.6-18.6,22.3
						c-21.3-25.9-42.6-51.7-64-77.5c-18.4,15.3-36.7,30.5-55.2,45.9c44.9,45.6,89.8,91.2,134.9,136.8c0.6-1.3,1.2-2.4,1.7-3.4
						c6.9-14.3,13.5-28.9,20.9-43c8.6-16.9,17.5-33.6,27.1-49.9c6.4-11,13.1-21.8,20-32.5C676.1,580.4,601.3,740.4,454.4,767.6z"/>
				</g>
				<g>
					<path class="st0" d="M817.1,241.4c-14.9,8.3-28.6,18.2-42,28.5c-6.9,5.2-13.5,10.8-20,16.5c-8.4,7.4-16.8,14.9-24.9,22.7
						c-9.4,8.9-18.5,18-27.3,27.4c-8.3,8.7-16.2,17.8-23.9,27.1c-7.9,9.5-15.6,19.2-23,29.1c-9.9,13.3-19.8,26.6-29,40.5
						c-3.8,5.8-7.6,11.5-11.3,17.4c-5.4-11.6-11.8-22.9-19.3-33.9l-6.9-10c9.2-9.5,18.3-18.8,27.6-28.1c7.8-7.8,15.6-15.6,23.7-23.1
						c9.5-8.8,19.2-17.5,29.2-25.9c13.2-11.1,26.3-22.1,40.1-32.3c12.3-9.2,25.3-17.5,38.3-25.8c8-5.1,16.4-9.6,25-13.9
						c13.3-6.7,27.1-12.3,41.7-16C815.7,241.6,816.3,241.5,817.1,241.4z"/>
				</g>
			</g>
		</g>
		<polygon class="st0" points="884.1,473.7 887.1,499 912.2,494.1 889,504.8 901.5,527.1 884.1,508.3 866.8,527.1 879.2,504.8 
			856.1,494.1 881.1,499 		"/>
	</g>
</g>
</svg>
