<?xml version="1.0" encoding="utf-8"?>
<!-- Generator: Adobe Illustrator 21.0.2, SVG Export Plug-In . SVG Version: 6.00 Build 0)  -->
<svg version="1.1" id="Layer_1" xmlns="http://www.w3.org/2000/svg" xmlns:xlink="http://www.w3.org/1999/xlink" x="0px" y="0px"
	 viewBox="0 0 1000 1000" style="enable-background:new 0 0 1000 1000;" xml:space="preserve">
<style type="text/css">
	.st0{fill:#2C3E50;}
	.st1{fill:none;stroke:#2C3E50;stroke-width:40.6918;stroke-miterlimit:10;}
	.st2{fill:#FFFFFF;}
	.st3{fill:none;stroke:#FFFFFF;stroke-width:10.7821;stroke-miterlimit:10;}
	.st4{font-family:'AlfaSlabOne-Regular';}
	.st5{font-size:83.813px;}
	.st6{letter-spacing:3;}
</style>
<g>
	<g>
		<polygon class="st2" points="207.2,466.4 208,473.1 214.7,471.8 208.5,474.6 211.8,480.5 207.2,475.6 202.6,480.5 205.9,474.6 
			199.8,471.8 206.4,473.1 		"/>
		<g>
			<path class="st3" d="M410.8,487.8v73.7c0,11.4-9.3,20.7-20.7,20.7H228c-11.4,0-20.7-9.3-20.7-20.7v-73.7"/>
			<path class="st3" d="M207.2,458.1v-72.6c0-11.4,9.3-20.7,20.7-20.7h162.1c11.4,0,20.7,9.3,20.7,20.7V458"/>
			<g>
				<g>
					<g>
						<path class="st2" d="M296.9,544.3c-1.5,0.3-3.3,0.3-4.9,0c-42.4-7.9-62.1-57.4-37.6-93l40-58.1l38.2,55.4
							c-0.1,0.1-0.2,0.2-0.3,0.3c-2.5,2.7-5,5.4-7.4,8.2c-1,1.2-2.1,2.3-3.1,3.5c-1.6,1.9-3.2,3.9-4.9,5.9
							c-5.7-6.9-11.3-13.7-17-20.5c-4.9,4.1-9.7,8.1-14.6,12.2c11.9,12.1,23.8,24.2,35.7,36.3c0.2-0.3,0.3-0.6,0.5-0.9
							c1.8-3.8,3.6-7.7,5.5-11.4c2.3-4.5,4.6-8.9,7.2-13.2c1.7-2.9,3.5-5.8,5.3-8.6C355.7,494.7,335.9,537.1,296.9,544.3z"/>
					</g>
					<g>
						<path class="st2" d="M393,404.9c-3.9,2.2-7.6,4.8-11.1,7.6c-1.8,1.4-3.6,2.9-5.3,4.4c-2.2,2-4.5,3.9-6.6,6
							c-2.5,2.4-4.9,4.8-7.2,7.3c-2.2,2.3-4.3,4.7-6.3,7.2c-2.1,2.5-4.1,5.1-6.1,7.7c-2.6,3.5-5.2,7-7.7,10.7c-1,1.5-2,3.1-3,4.6
							c-1.4-3.1-3.1-6.1-5.1-9l-1.8-2.6c2.4-2.5,4.9-5,7.3-7.4c2.1-2.1,4.1-4.1,6.3-6.1c2.5-2.3,5.1-4.6,7.7-6.9
							c3.5-2.9,7-5.8,10.6-8.6c3.3-2.4,6.7-4.6,10.2-6.8c2.1-1.3,4.4-2.6,6.6-3.7c3.5-1.8,7.2-3.3,11-4.2
							C392.7,404.9,392.8,404.9,393,404.9z"/>
					</g>
				</g>
			</g>
			<polygon class="st2" points="410.8,466.4 411.6,473.1 418.2,471.8 412.1,474.6 415.4,480.5 410.8,475.6 406.2,480.5 409.5,474.6 
				403.4,471.8 410,473.1 			"/>
		</g>
	</g>
	<g>
		<text transform="matrix(1 0 0 1 442.9474 454.1577)" class="st2 st4 st5 st6">RECIFE</text>
	</g>
	<g>
		<text transform="matrix(1 0 0 1 442.9474 554.2866)" class="st2 st4 st5">ALERTA</text>
	</g>
</g>
</svg>
